<mxfile host="app.diagrams.net" agent="Mozilla/5.0 (Windows NT 10.0; Win64; x64) AppleWebKit/537.36 (KHTML, like Gecko) Chrome/136.0.0.0 Safari/537.36" version="27.0.5">
  <diagram name="Page-1" id="iABawWZfLHHF44QuMbSg">
    <mxGraphModel dx="1426" dy="905" grid="1" gridSize="10" guides="1" tooltips="1" connect="1" arrows="1" fold="1" page="1" pageScale="1" pageWidth="827" pageHeight="1169" math="0" shadow="0">
      <root>
        <mxCell id="0" />
        <mxCell id="1" parent="0" />
        <mxCell id="mk669JkTlTOHlN9avRZv-1" value="&lt;font style=&quot;font-size: 24px;&quot;&gt;Data Center&lt;/font&gt;" style="rounded=1;whiteSpace=wrap;html=1;" parent="1" vertex="1">
          <mxGeometry x="70" y="170" width="150" height="300" as="geometry" />
        </mxCell>
        <mxCell id="mk669JkTlTOHlN9avRZv-2" value="Storage" style="shape=cylinder3;whiteSpace=wrap;html=1;boundedLbl=1;backgroundOutline=1;size=15;" parent="1" vertex="1">
          <mxGeometry x="373.5" y="70" width="80" height="100" as="geometry" />
        </mxCell>
        <mxCell id="mk669JkTlTOHlN9avRZv-3" value="&lt;font style=&quot;font-size: 24px;&quot;&gt;Heat demand&lt;/font&gt;&lt;div&gt;&lt;font style=&quot;font-size: 24px;&quot;&gt;&lt;br&gt;&lt;/font&gt;&lt;/div&gt;&lt;div&gt;&lt;span style=&quot;font-size: 16px;&quot;&gt;district with&amp;nbsp;&lt;/span&gt;&lt;/div&gt;&lt;div&gt;&lt;span style=&quot;font-size: 16px;&quot;&gt;local boilers&lt;/span&gt;&lt;/div&gt;" style="rounded=1;whiteSpace=wrap;html=1;" parent="1" vertex="1">
          <mxGeometry x="610" y="170" width="150" height="300" as="geometry" />
        </mxCell>
        <mxCell id="mk669JkTlTOHlN9avRZv-4" value="" style="endArrow=classic;html=1;rounded=0;fillColor=#e51400;strokeColor=#B20000;" parent="1" edge="1">
          <mxGeometry width="50" height="50" relative="1" as="geometry">
            <mxPoint x="220" y="220" as="sourcePoint" />
            <mxPoint x="420" y="220" as="targetPoint" />
            <Array as="points" />
          </mxGeometry>
        </mxCell>
        <mxCell id="mk669JkTlTOHlN9avRZv-5" value="" style="endArrow=classic;html=1;rounded=0;entryX=0;entryY=0.5;entryDx=0;entryDy=0;entryPerimeter=0;fillColor=#e51400;strokeColor=#B20000;" parent="1" target="mk669JkTlTOHlN9avRZv-2" edge="1">
          <mxGeometry width="50" height="50" relative="1" as="geometry">
            <mxPoint x="280" y="220" as="sourcePoint" />
            <mxPoint x="330" y="170" as="targetPoint" />
            <Array as="points">
              <mxPoint x="280" y="120" />
            </Array>
          </mxGeometry>
        </mxCell>
        <mxCell id="mk669JkTlTOHlN9avRZv-6" value="" style="endArrow=classic;html=1;rounded=0;fillColor=#e51400;strokeColor=#B20000;" parent="1" edge="1">
          <mxGeometry width="50" height="50" relative="1" as="geometry">
            <mxPoint x="280" y="220" as="sourcePoint" />
            <mxPoint x="370" y="320" as="targetPoint" />
            <Array as="points">
              <mxPoint x="280" y="320" />
            </Array>
          </mxGeometry>
        </mxCell>
        <mxCell id="mk669JkTlTOHlN9avRZv-7" value="" style="endArrow=classic;html=1;rounded=0;entryX=0;entryY=0.167;entryDx=0;entryDy=0;entryPerimeter=0;fillColor=#008a00;strokeColor=#005700;" parent="1" target="mk669JkTlTOHlN9avRZv-3" edge="1">
          <mxGeometry width="50" height="50" relative="1" as="geometry">
            <mxPoint x="420" y="220" as="sourcePoint" />
            <mxPoint x="450" y="170" as="targetPoint" />
          </mxGeometry>
        </mxCell>
        <mxCell id="mk669JkTlTOHlN9avRZv-8" value="" style="endArrow=classic;html=1;rounded=0;exitX=1;exitY=0.5;exitDx=0;exitDy=0;exitPerimeter=0;fillColor=#008a00;strokeColor=#005700;" parent="1" source="mk669JkTlTOHlN9avRZv-2" edge="1">
          <mxGeometry width="50" height="50" relative="1" as="geometry">
            <mxPoint x="490" y="207" as="sourcePoint" />
            <mxPoint x="550" y="220" as="targetPoint" />
            <Array as="points">
              <mxPoint x="550" y="120" />
              <mxPoint x="550" y="170" />
            </Array>
          </mxGeometry>
        </mxCell>
        <mxCell id="mk669JkTlTOHlN9avRZv-9" value="" style="endArrow=classic;html=1;rounded=0;fillColor=#0050ef;strokeColor=#001DBC;" parent="1" edge="1">
          <mxGeometry width="50" height="50" relative="1" as="geometry">
            <mxPoint x="450" y="320" as="sourcePoint" />
            <mxPoint x="520" y="420" as="targetPoint" />
            <Array as="points">
              <mxPoint x="520" y="320" />
            </Array>
          </mxGeometry>
        </mxCell>
        <mxCell id="mk669JkTlTOHlN9avRZv-10" value="" style="endArrow=classic;html=1;rounded=0;exitX=0;exitY=0.838;exitDx=0;exitDy=0;exitPerimeter=0;fillColor=#0050ef;strokeColor=#001DBC;entryX=1;entryY=0.842;entryDx=0;entryDy=0;entryPerimeter=0;" parent="1" source="mk669JkTlTOHlN9avRZv-3" target="mk669JkTlTOHlN9avRZv-1" edge="1">
          <mxGeometry width="50" height="50" relative="1" as="geometry">
            <mxPoint x="600" y="421" as="sourcePoint" />
            <mxPoint x="230" y="421" as="targetPoint" />
          </mxGeometry>
        </mxCell>
        <mxCell id="mk669JkTlTOHlN9avRZv-11" value="" style="verticalLabelPosition=bottom;outlineConnect=0;align=center;dashed=0;html=1;verticalAlign=top;shape=mxgraph.pid.misc.cooling_tower" parent="1" vertex="1">
          <mxGeometry x="364" y="260" width="100" height="120" as="geometry" />
        </mxCell>
        <mxCell id="mk669JkTlTOHlN9avRZv-12" value="Cooling&lt;div&gt;Tower&lt;/div&gt;" style="text;html=1;align=center;verticalAlign=middle;whiteSpace=wrap;rounded=0;" parent="1" vertex="1">
          <mxGeometry x="384" y="305" width="60" height="30" as="geometry" />
        </mxCell>
        <mxCell id="mk669JkTlTOHlN9avRZv-13" value="&lt;div&gt;Thermal&lt;/div&gt;&lt;div&gt;Heat&lt;/div&gt;Storage" style="shape=cylinder3;whiteSpace=wrap;html=1;boundedLbl=1;backgroundOutline=1;size=15;" parent="1" vertex="1">
          <mxGeometry x="110" y="580" width="80" height="100" as="geometry" />
        </mxCell>
        <mxCell id="mk669JkTlTOHlN9avRZv-14" value="&lt;div&gt;Volumetric&lt;/div&gt;Storage" style="shape=cylinder3;whiteSpace=wrap;html=1;boundedLbl=1;backgroundOutline=1;size=15;" parent="1" vertex="1">
          <mxGeometry x="640" y="580" width="80" height="100" as="geometry" />
        </mxCell>
        <mxCell id="mk669JkTlTOHlN9avRZv-15" value="" style="shape=flexArrow;endArrow=classic;html=1;rounded=0;fillColor=#e51400;strokeColor=#B20000;width=31;endSize=7.22;" parent="1" edge="1">
          <mxGeometry width="50" height="50" relative="1" as="geometry">
            <mxPoint x="560" y="770" as="sourcePoint" />
            <mxPoint x="640" y="769.5" as="targetPoint" />
          </mxGeometry>
        </mxCell>
        <mxCell id="mk669JkTlTOHlN9avRZv-16" value="" style="shape=cylinder3;whiteSpace=wrap;html=1;boundedLbl=1;backgroundOutline=1;size=15;" parent="1" vertex="1">
          <mxGeometry x="640" y="720" width="80" height="100" as="geometry" />
        </mxCell>
        <mxCell id="mk669JkTlTOHlN9avRZv-17" value="" style="shape=flexArrow;endArrow=classic;html=1;rounded=0;fillColor=#008a00;strokeColor=#005700;" parent="1" edge="1">
          <mxGeometry width="50" height="50" relative="1" as="geometry">
            <mxPoint x="720" y="769.5" as="sourcePoint" />
            <mxPoint x="800" y="770" as="targetPoint" />
          </mxGeometry>
        </mxCell>
        <mxCell id="mk669JkTlTOHlN9avRZv-18" value="" style="shape=dataStorage;whiteSpace=wrap;html=1;fixedSize=1;rotation=-90;size=10;fillColor=#647687;strokeColor=#314354;fontColor=#ffffff;" parent="1" vertex="1">
          <mxGeometry x="665" y="770" width="30" height="80" as="geometry" />
        </mxCell>
        <mxCell id="mk669JkTlTOHlN9avRZv-19" value="" style="shape=flexArrow;endArrow=classic;html=1;rounded=0;width=7;endSize=3.89;endWidth=10;exitX=0.633;exitY=0.5;exitDx=0;exitDy=0;exitPerimeter=0;fillColor=#f5f5f5;strokeColor=#666666;gradientColor=#b3b3b3;" parent="1" source="mk669JkTlTOHlN9avRZv-18" edge="1">
          <mxGeometry width="50" height="50" relative="1" as="geometry">
            <mxPoint x="680" y="800" as="sourcePoint" />
            <mxPoint x="679.5" y="770" as="targetPoint" />
            <Array as="points">
              <mxPoint x="680" y="790" />
            </Array>
          </mxGeometry>
        </mxCell>
        <mxCell id="mk669JkTlTOHlN9avRZv-20" value="" style="shape=flexArrow;endArrow=classic;html=1;rounded=0;fillColor=#008a00;strokeColor=#005700;width=31;endSize=7.22;" parent="1" edge="1">
          <mxGeometry width="50" height="50" relative="1" as="geometry">
            <mxPoint x="717.5" y="910" as="sourcePoint" />
            <mxPoint x="800" y="910" as="targetPoint" />
          </mxGeometry>
        </mxCell>
        <mxCell id="mk669JkTlTOHlN9avRZv-21" value="" style="shape=cylinder3;whiteSpace=wrap;html=1;boundedLbl=1;backgroundOutline=1;size=15;" parent="1" vertex="1">
          <mxGeometry x="640" y="860" width="80" height="100" as="geometry" />
        </mxCell>
        <mxCell id="mk669JkTlTOHlN9avRZv-22" value="" style="shape=flexArrow;endArrow=classic;html=1;rounded=0;fillColor=#e51400;strokeColor=#B20000;" parent="1" edge="1">
          <mxGeometry width="50" height="50" relative="1" as="geometry">
            <mxPoint x="560" y="910" as="sourcePoint" />
            <mxPoint x="640" y="910" as="targetPoint" />
          </mxGeometry>
        </mxCell>
        <mxCell id="mk669JkTlTOHlN9avRZv-23" value="" style="shape=dataStorage;whiteSpace=wrap;html=1;fixedSize=1;rotation=-90;size=10;fillColor=#647687;strokeColor=#314354;fontColor=#ffffff;" parent="1" vertex="1">
          <mxGeometry x="642.5" y="887.5" width="75" height="80" as="geometry" />
        </mxCell>
        <mxCell id="mk669JkTlTOHlN9avRZv-24" value="V" style="text;html=1;align=center;verticalAlign=middle;whiteSpace=wrap;rounded=0;" parent="1" vertex="1">
          <mxGeometry x="650" y="767.5" width="20" height="30" as="geometry" />
        </mxCell>
        <mxCell id="mk669JkTlTOHlN9avRZv-25" value="V" style="text;html=1;align=center;verticalAlign=middle;whiteSpace=wrap;rounded=0;" parent="1" vertex="1">
          <mxGeometry x="650" y="905" width="20" height="30" as="geometry" />
        </mxCell>
        <mxCell id="mk669JkTlTOHlN9avRZv-26" value="" style="shape=flexArrow;endArrow=classic;html=1;rounded=0;width=7;endSize=3.89;endWidth=10;fillColor=#f5f5f5;strokeColor=#666666;gradientColor=#b3b3b3;" parent="1" edge="1">
          <mxGeometry width="50" height="50" relative="1" as="geometry">
            <mxPoint x="679.5" y="900" as="sourcePoint" />
            <mxPoint x="679.5" y="940" as="targetPoint" />
            <Array as="points" />
          </mxGeometry>
        </mxCell>
        <mxCell id="mk669JkTlTOHlN9avRZv-27" value="" style="shape=flexArrow;endArrow=classic;html=1;rounded=0;fillColor=#e51400;strokeColor=#B20000;width=31;endSize=7.22;" parent="1" edge="1">
          <mxGeometry width="50" height="50" relative="1" as="geometry">
            <mxPoint x="30" y="770" as="sourcePoint" />
            <mxPoint x="110" y="769.5" as="targetPoint" />
          </mxGeometry>
        </mxCell>
        <mxCell id="mk669JkTlTOHlN9avRZv-28" value="" style="shape=cylinder3;whiteSpace=wrap;html=1;boundedLbl=1;backgroundOutline=1;size=15;" parent="1" vertex="1">
          <mxGeometry x="110" y="720" width="80" height="100" as="geometry" />
        </mxCell>
        <mxCell id="mk669JkTlTOHlN9avRZv-29" value="" style="shape=flexArrow;endArrow=classic;html=1;rounded=0;fillColor=#008a00;strokeColor=#005700;" parent="1" edge="1">
          <mxGeometry width="50" height="50" relative="1" as="geometry">
            <mxPoint x="190" y="769.5" as="sourcePoint" />
            <mxPoint x="270" y="770" as="targetPoint" />
          </mxGeometry>
        </mxCell>
        <mxCell id="mk669JkTlTOHlN9avRZv-30" value="" style="shape=dataStorage;whiteSpace=wrap;html=1;fixedSize=1;rotation=-90;size=10;fillColor=#66B2FF;strokeColor=#006EAF;fontColor=#ffffff;gradientDirection=east;gradientColor=#FF3333;" parent="1" vertex="1">
          <mxGeometry x="107.5" y="742.5" width="85" height="80" as="geometry" />
        </mxCell>
        <mxCell id="mk669JkTlTOHlN9avRZv-31" value="" style="shape=flexArrow;endArrow=classic;html=1;rounded=0;fillColor=#008a00;strokeColor=#005700;width=31;endSize=7.22;" parent="1" edge="1">
          <mxGeometry width="50" height="50" relative="1" as="geometry">
            <mxPoint x="187.5" y="910" as="sourcePoint" />
            <mxPoint x="270" y="910" as="targetPoint" />
          </mxGeometry>
        </mxCell>
        <mxCell id="mk669JkTlTOHlN9avRZv-32" value="" style="shape=cylinder3;whiteSpace=wrap;html=1;boundedLbl=1;backgroundOutline=1;size=15;" parent="1" vertex="1">
          <mxGeometry x="110" y="860" width="80" height="100" as="geometry" />
        </mxCell>
        <mxCell id="mk669JkTlTOHlN9avRZv-33" value="" style="shape=flexArrow;endArrow=classic;html=1;rounded=0;fillColor=#e51400;strokeColor=#B20000;" parent="1" edge="1">
          <mxGeometry width="50" height="50" relative="1" as="geometry">
            <mxPoint x="30" y="910" as="sourcePoint" />
            <mxPoint x="110" y="910" as="targetPoint" />
          </mxGeometry>
        </mxCell>
        <mxCell id="mk669JkTlTOHlN9avRZv-34" value="" style="shape=dataStorage;whiteSpace=wrap;html=1;fixedSize=1;rotation=-90;size=10;fillColor=#FF3333;strokeColor=#314354;fontColor=#ffffff;gradientColor=#66B2FF;gradientDirection=east;" parent="1" vertex="1">
          <mxGeometry x="106.25" y="880" width="87.5" height="80" as="geometry" />
        </mxCell>
        <mxCell id="mk669JkTlTOHlN9avRZv-35" value="Temp" style="text;html=1;align=center;verticalAlign=middle;whiteSpace=wrap;rounded=0;" parent="1" vertex="1">
          <mxGeometry x="120" y="767.5" width="20" height="30" as="geometry" />
        </mxCell>
        <mxCell id="mk669JkTlTOHlN9avRZv-36" value="Temp" style="text;html=1;align=center;verticalAlign=middle;whiteSpace=wrap;rounded=0;" parent="1" vertex="1">
          <mxGeometry x="120" y="905" width="20" height="30" as="geometry" />
        </mxCell>
        <mxCell id="mk669JkTlTOHlN9avRZv-37" value="" style="shape=flexArrow;endArrow=classic;html=1;rounded=0;width=7;endSize=3.89;endWidth=10;fillColor=#f5f5f5;strokeColor=#666666;gradientColor=#b3b3b3;" parent="1" edge="1">
          <mxGeometry width="50" height="50" relative="1" as="geometry">
            <mxPoint x="149.5" y="900" as="sourcePoint" />
            <mxPoint x="149.5" y="940" as="targetPoint" />
            <Array as="points" />
          </mxGeometry>
        </mxCell>
        <mxCell id="mk669JkTlTOHlN9avRZv-38" value="" style="shape=flexArrow;endArrow=classic;html=1;rounded=0;width=7;endSize=3.89;endWidth=10;fillColor=#f5f5f5;strokeColor=#666666;gradientColor=#b3b3b3;" parent="1" edge="1">
          <mxGeometry width="50" height="50" relative="1" as="geometry">
            <mxPoint x="149.5" y="802.5" as="sourcePoint" />
            <mxPoint x="149.5" y="762.5" as="targetPoint" />
            <Array as="points" />
          </mxGeometry>
        </mxCell>
        <mxCell id="mk669JkTlTOHlN9avRZv-40" value="change gradiant of Temp to better stick with reality" style="text;html=1;align=center;verticalAlign=middle;whiteSpace=wrap;rounded=0;" parent="1" vertex="1">
          <mxGeometry x="80" y="970" width="130" height="50" as="geometry" />
        </mxCell>
      </root>
    </mxGraphModel>
  </diagram>
</mxfile>
